# xmcd
#
# Track frame offsets: 
#        150
#        15165
#        27267
#        39262
#        53447
#        68522
#        80737
#        91232
#        104290
#        118832
#        131680
#        145402
#        158145
#        171412
#        183680
#        198137
#        213437
#        229182
#        245032
#        257100
#
# Disc length: 3582 seconds
#
# Revision: 1
# Processed by: cddbd v1.5.1PL0 Copyright (c) Steve Scherf et al.
# Submitted via: ExactAudioCopy v0.90b4
#
DISCID=110dfc14
DTITLE=Celia Cruz - Irresistible
DYEAR=1995
DGENRE=Latin
TTITLE0=Tu Voz
TTITLE1=El Yerberito Moderno
TTITLE2=Burundanga
TTITLE3=Lágrimas Negras
TTITLE4=Guantanamera
TTITLE5=Secuéstrame
TTITLE6=Alguien
TTITLE7=El Pescador
TTITLE8=Canoero
TTITLE9=La Bikina
TTITLE10=Comencé A Adorarte
TTITLE11=Su Majestad La Rumba
TTITLE12=Panquelero
TTITLE13=La Jaibera
TTITLE14=Pitipitin Tintero
TTITLE15=Ven Bernabé/Lamento Jarocho
TTITLE16=Pulpa De Tamarindo
TTITLE17=La Campeona
TTITLE18=Angelitos Negros
TTITLE19=Mi Lindo Bohio
EXTD=
EXTT0=
EXTT1=
EXTT2=
EXTT3=
EXTT4=
EXTT5=
EXTT6=
EXTT7=
EXTT8=
EXTT9=
EXTT10=
EXTT11=
EXTT12=
EXTT13=
EXTT14=
EXTT15=
EXTT16=
EXTT17=
EXTT18=
EXTT19=
PLAYORDER=
